<svg xmlns="http://www.w3.org/2000/svg" viewBox="0 0 600 600" width="600" height="600">
  <defs>
    <style><![CDATA[@import url('https://fonts.googleapis.com/css2?family=Montserrat:wght@400;600;700;800&display=swap');]]></style>
  </defs>

  <!-- ── Background ── -->
  <rect width="600" height="600" fill="#0E2140"/>

  <!-- ── UUID-derived depth blobs (unique per listing, subtle) ── -->
  <circle cx="232" cy="300" r="171" fill="#1a3a6b" opacity="0.32"/>
  <circle cx="234" cy="259" r="202" fill="#1a3a6b" opacity="0.32"/>
  <circle cx="391" cy="301" r="98" fill="#1a3a6b" opacity="0.32"/>


  <!-- ── Large watermark mark (centre, very faint) ── -->
  <g transform="translate(232,180) scale(2.7)" opacity="0.04" fill="white">
    <polygon points="0,72 13,72 18,18 5,33" fill="white"/>
    <polygon points="18,72 32,72 32,0 18,9" fill="white"/>
    <polygon points="37,72 50,72 50,22 37,36" fill="white"/>
  </g>

  <!-- ── Outer frame ── -->
  <rect x="14" y="14" width="572" height="572" fill="none" stroke="rgba(255,255,255,0.07)" stroke-width="1"/>

  <!-- ── Corner brackets ── -->
  <path d="M24,72 L24,24 L72,24"   fill="none" stroke="#2563EB" stroke-width="1.5" opacity="0.55"/>
  <path d="M528,24 L576,24 L576,72" fill="none" stroke="#2563EB" stroke-width="1.5" opacity="0.55"/>
  <path d="M24,528 L24,576 L72,576" fill="none" stroke="#2563EB" stroke-width="1.5" opacity="0.55"/>
  <path d="M576,528 L576,576 L528,576" fill="none" stroke="#2563EB" stroke-width="1.5" opacity="0.55"/>

  <!-- ── Logo mark ── -->
  <g transform="translate(275,44)" opacity="0.94" fill="white">
    <polygon points="0,72 13,72 18,18 5,33" fill="white"/>
    <polygon points="18,72 32,72 32,0 18,9" fill="white"/>
    <polygon points="37,72 50,72 50,22 37,36" fill="white"/>
  </g>

  <!-- ── MERIDIAN wordmark ── -->
  <text x="300" y="136"
    font-family="Montserrat,system-ui,sans-serif"
    font-size="21" font-weight="700" letter-spacing="5"
    fill="white" text-anchor="middle">MERIDIAN</text>

  <!-- ── MARKETS sub-label ── -->
  <text x="300" y="155"
    font-family="Montserrat,system-ui,sans-serif"
    font-size="9" font-weight="600" letter-spacing="7"
    fill="rgba(255,255,255,0.36)" text-anchor="middle">MARKETS</text>

  <!-- ── Divider with diamond ── -->
  <line x1="40"  y1="178" x2="272" y2="178" stroke="#2563EB" stroke-width="1" opacity="0.42"/>
  <polygon points="300,171 307,178 300,185 293,178" fill="#2563EB" opacity="0.68"/>
  <line x1="328" y1="178" x2="560" y2="178" stroke="#2563EB" stroke-width="1" opacity="0.42"/>

  <!-- ── ACQUISITION label ── -->
  <text x="300" y="228"
    font-family="Montserrat,system-ui,sans-serif"
    font-size="10" font-weight="600" letter-spacing="7"
    fill="rgba(255,255,255,0.36)" text-anchor="middle">ACQUISITION</text>

  <!-- ── CERTIFICATE heading ── -->
  <text x="300" y="270"
    font-family="Montserrat,system-ui,sans-serif"
    font-size="36" font-weight="800" letter-spacing="2"
    fill="white" text-anchor="middle">CERTIFICATE</text>

  <!-- ── Accent rule under heading ── -->
  <line x1="120" y1="286" x2="480" y2="286" stroke="#2563EB" stroke-width="1.5" opacity="0.5"/>

  <!-- ── Business name ── -->
  <text x="300" y="358"
    font-family="Montserrat,system-ui,sans-serif"
    font-size="26" font-weight="700"
    fill="white" text-anchor="middle">dsf</text>

  <!-- ── Category · Location ── -->
  <text x="300" y="390"
    font-family="Montserrat,system-ui,sans-serif"
    font-size="13" fill="rgba(255,255,255,0.48)" text-anchor="middle">Ecommerce</text>

  <!-- ── Asking range ── -->
  <text x="300" y="428" font-family="Montserrat,system-ui,sans-serif" font-size="18" font-weight="600" fill="#93c5fd" text-anchor="middle">$250K – $2M</text>

  <!-- ── Footer separator ── -->
  <line x1="30" y1="518" x2="570" y2="518" stroke="rgba(255,255,255,0.08)" stroke-width="1"/>

  <!-- ── Footer: verified badge + serial ── -->
  <text x="572" y="563" font-family="Montserrat,system-ui,sans-serif" font-size="12" fill="rgba(255,255,255,0.40)" text-anchor="end">PVTL #29</text>

</svg>